<?xml version="1.0" standalone="no"?>
<!DOCTYPE svg PUBLIC "-//W3C//DTD SVG 20010904//EN"
 "http://www.w3.org/TR/2001/REC-SVG-20010904/DTD/svg10.dtd">
<svg version="1.0" xmlns="http://www.w3.org/2000/svg"
 width="500.000000pt" height="499.000000pt" viewBox="0 0 500.000000 499.000000"
 preserveAspectRatio="xMidYMid meet">

<g transform="translate(0.000000,499.000000) scale(0.100000,-0.100000)"
fill="#ffffff" stroke="none">
<path d="M2860 3717 c-54 -20 -69 -30 -124 -85 -98 -97 -166 -268 -166 -416 0
-223 120 -379 291 -379 134 0 253 112 330 312 33 85 33 261 0 353 -61 169
-205 262 -331 215z"/>
<path d="M1991 3709 c-165 -50 -249 -272 -191 -502 79 -316 337 -473 510 -311
72 67 103 144 108 267 3 56 -1 125 -8 160 -18 91 -89 233 -146 291 -79 81
-191 120 -273 95z"/>
<path d="M3399 2996 c-69 -28 -104 -52 -156 -109 -97 -105 -143 -223 -143
-365 0 -145 45 -242 134 -290 50 -26 170 -22 230 9 107 53 191 160 243 310 22
64 25 85 21 174 -5 117 -29 177 -97 237 -67 61 -140 72 -232 34z"/>
<path d="M1410 2943 c-107 -72 -144 -179 -121 -348 30 -216 220 -417 397 -419
90 -1 148 36 192 125 82 162 37 375 -113 536 -81 88 -137 115 -250 120 -63 3
-85 0 -105 -14z"/>
<path d="M2390 2484 c-214 -57 -416 -243 -530 -487 -72 -156 -111 -284 -112
-368 -1 -92 12 -119 86 -186 107 -98 163 -96 457 11 137 49 247 70 333 62 85
-7 130 -20 261 -76 215 -92 322 -94 409 -7 120 121 80 306 -132 617 -174 257
-328 389 -506 436 -66 18 -196 17 -266 -2z"/>
</g>
</svg>
