<?xml version="1.0" standalone="no"?>
<!DOCTYPE svg PUBLIC "-//W3C//DTD SVG 20010904//EN"
 "http://www.w3.org/TR/2001/REC-SVG-20010904/DTD/svg10.dtd">
<svg version="1.0" xmlns="http://www.w3.org/2000/svg"
 width="242.000000pt" height="60.000000pt" viewBox="0 0 272.000000 70.000000"
 preserveAspectRatio="xMidYMid meet">

<g transform="translate(0.000000,70.000000) scale(0.100000,-0.100000)"
fill="#ffffff" stroke="none">
<path d="M765 670 c-36 -20 -75 -75 -75 -104 0 -35 28 -68 53 -61 12 2 16 2
10 -1 -7 -3 -13 -10 -13 -15 0 -14 28 -11 33 4 3 7 6 5 6 -5 1 -10 8 -18 16
-18 8 0 15 -3 15 -8 0 -4 10 -12 22 -17 39 -18 45 -41 19 -69 -22 -23 -22 -25
-4 -35 16 -8 27 -3 64 32 l44 42 3 -70 c3 -61 1 -72 -17 -84 -12 -7 -21 -24
-21 -36 0 -13 -6 -26 -12 -29 -10 -5 -10 -7 0 -12 8 -4 12 -30 12 -79 0 -48 4
-77 13 -82 6 -4 39 -9 72 -10 33 -1 67 -3 75 -3 72 -3 415 11 422 18 5 5 7
125 6 268 l-3 259 -270 0 -270 0 -3 -32 c-4 -39 -18 -42 -34 -8 -6 14 -23 28
-37 32 -80 20 -135 74 -97 95 17 9 22 34 9 41 -5 2 -21 -3 -38 -13z m589 -152
c25 -35 20 -94 -9 -123 -47 -48 -95 -18 -95 60 0 22 7 51 16 63 20 30 68 30
88 0z m-149 -30 c18 -34 19 -40 5 -80 -13 -37 -19 -43 -46 -46 -27 -3 -35 2
-54 33 -17 27 -21 45 -17 72 8 48 24 65 61 61 24 -2 35 -11 51 -40z m-228 -55
c-3 -10 -5 -4 -5 12 0 17 2 24 5 18 2 -7 2 -21 0 -30z m498 -63 c33 -63 3
-140 -55 -140 -51 0 -79 77 -47 133 16 30 27 37 59 37 20 0 31 -8 43 -30z
m-385 -12 c22 -36 26 -88 10 -119 -19 -34 8 -21 55 27 37 37 51 45 84 47 33 1
47 -5 84 -38 25 -22 63 -52 86 -67 37 -25 41 -32 41 -68 0 -30 -7 -48 -30 -72
l-29 -33 -1 27 c0 31 -22 49 -83 68 -27 8 -37 17 -35 28 4 23 66 29 74 8 8
-20 34 -21 34 -2 0 20 -39 46 -70 46 -43 0 -72 -27 -68 -63 3 -28 9 -34 48
-47 62 -20 73 -29 61 -44 -11 -13 -81 -9 -81 5 0 5 -9 9 -20 9 -11 0 -20 -4
-20 -10 0 -5 -9 -10 -20 -10 -18 0 -20 7 -20 58 0 44 -5 63 -17 74 -23 21 -89
38 -100 27 -15 -15 -71 21 -82 54 -22 61 11 127 61 127 10 0 27 -15 38 -32z
m-123 -135 c-3 -10 -5 -4 -5 12 0 17 2 24 5 18 2 -7 2 -21 0 -30z m177 -59
c24 -24 19 -33 -21 -39 -21 -3 -54 -13 -73 -23 l-35 -18 1 31 c1 23 6 30 20
28 10 -1 24 7 32 18 16 23 55 25 76 3z m-177 -86 c-2 -18 -4 -4 -4 32 0 36 2
50 4 33 2 -18 2 -48 0 -65z m187 0 c-9 -30 -23 -39 -59 -36 -22 2 -30 8 -30
23 0 19 27 32 73 34 20 1 22 -2 16 -21z"/>
<path d="M836 682 c-13 -13 -4 -33 18 -42 13 -5 34 -22 46 -39 27 -40 38 -33
36 23 -1 51 -9 64 -30 47 -8 -7 -17 -8 -20 -3 -7 12 -43 22 -50 14z"/>
<path d="M94 666 c-36 -16 -74 -72 -74 -108 0 -31 48 -81 72 -75 9 3 18 2 20
-3 2 -4 22 -19 46 -34 46 -29 52 -48 22 -73 -14 -13 -17 -20 -8 -30 17 -21 30
-16 82 33 43 41 48 49 42 77 -6 31 -66 97 -88 97 -26 0 -88 35 -94 53 -3 10 1
26 10 36 17 18 21 41 9 41 -5 -1 -22 -7 -39 -14z"/>
<path d="M167 673 c-13 -12 -7 -23 23 -38 16 -8 37 -29 45 -45 21 -41 33 -31
33 30 0 52 -10 69 -31 51 -8 -6 -18 -6 -27 -1 -18 11 -34 13 -43 3z"/>
<path d="M408 670 c-9 -6 -30 -34 -47 -64 -23 -40 -31 -66 -31 -104 0 -28 5
-54 10 -57 6 -4 18 -24 26 -45 11 -27 26 -42 55 -55 50 -23 71 -10 46 29 -13
19 -16 45 -13 134 2 60 9 119 15 131 7 12 9 26 6 31 -8 13 -45 12 -67 0z"/>
<path d="M500 667 c0 -9 5 -19 10 -22 6 -3 10 -15 10 -26 0 -11 4 -18 9 -15
16 10 4 -190 -14 -224 -17 -34 -13 -50 13 -50 18 1 52 23 52 34 0 3 14 19 30
35 68 65 59 173 -22 249 -31 29 -88 41 -88 19z"/>
<path d="M697 408 c6 -76 9 -81 33 -68 12 6 34 8 51 5 40 -9 38 14 -4 40 -17
11 -38 33 -45 48 -22 47 -40 34 -35 -25z"/>
<path d="M28 398 c5 -62 15 -76 37 -58 12 10 21 10 39 2 23 -10 36 -7 36 9 0
4 -16 16 -35 28 -19 11 -40 32 -45 46 -5 14 -16 25 -23 25 -11 0 -13 -12 -9
-52z"/>
<path d="M365 198 c-33 -50 -61 -95 -63 -100 -2 -4 26 -8 62 -8 l66 0 0 -34
c0 -22 6 -36 16 -40 27 -10 36 4 32 53 l-3 46 55 3 c83 3 98 9 116 44 13 26
14 38 5 69 -7 21 -20 43 -31 49 -10 5 -58 10 -107 10 l-88 0 -60 -92z m245 42
c24 -24 25 -38 4 -68 -13 -19 -24 -22 -75 -22 l-59 0 0 55 0 55 55 0 c42 0 60
-5 75 -20z m-180 -65 l0 -75 -56 0 -56 0 18 28 c9 15 31 48 48 74 17 26 34 48
39 48 4 0 7 -34 7 -75z"/>
<path d="M712 183 c-25 -25 -25 -28 -8 -31 10 -2 23 3 28 12 12 21 74 22 82 0
9 -24 0 -32 -47 -39 -23 -4 -50 -14 -59 -23 -22 -19 -23 -55 -2 -76 18 -19 75
-21 92 -4 8 8 15 8 27 -2 24 -20 28 -7 26 77 -1 65 -5 81 -22 96 -32 26 -85
22 -117 -10z m104 -108 c-8 -31 -49 -50 -77 -35 -21 12 -25 35 -7 46 13 9 81
22 87 18 2 -2 0 -15 -3 -29z"/>
</g>
</svg>
