<?xml version="1.0" standalone="no"?>
<!DOCTYPE svg PUBLIC "-//W3C//DTD SVG 20010904//EN"
 "http://www.w3.org/TR/2001/REC-SVG-20010904/DTD/svg10.dtd">
<svg version="1.0" xmlns="http://www.w3.org/2000/svg"
 width="500.000000pt" height="500.000000pt" viewBox="0 0 500.000000 500.000000"
 preserveAspectRatio="xMidYMid meet">

<g transform="translate(0.000000,500.000000) scale(0.100000,-0.100000)"
fill="#fff" stroke="none">
<path fill="#000" d="M1908 3581 c-93 -30 -130 -90 -136 -222 -9 -176 46 -262 237 -378 54
-33 68 -68 53 -139 -10 -49 -58 -157 -84 -189 -16 -20 -46 -15 -62 10 -23 34
-58 156 -60 206 -1 55 22 68 44 24 39 -77 85 -96 96 -39 12 66 -12 113 -73
145 -31 16 -119 14 -152 -4 -62 -32 -77 -124 -37 -236 44 -127 127 -208 212
-209 123 -1 264 197 264 371 0 91 -18 113 -157 197 -78 46 -102 78 -109 139
-6 58 14 142 38 157 28 17 58 -18 58 -68 0 -45 25 -104 52 -120 23 -14 45 7
73 69 36 79 47 129 34 162 -30 80 -201 153 -291 124z"/>
<path d="M3038 3581 c-46 -15 -83 -42 -108 -79 -23 -33 -25 -44 -25 -156 0
-115 2 -124 30 -180 33 -64 101 -131 168 -164 24 -12 55 -35 71 -51 26 -27 28
-35 23 -78 -7 -53 -49 -163 -79 -205 -31 -44 -60 -37 -86 20 -28 61 -55 179
-47 209 8 35 27 28 60 -25 38 -60 66 -63 79 -9 20 80 -45 147 -144 147 -121 0
-167 -85 -125 -228 28 -92 95 -185 157 -218 129 -68 311 121 325 338 6 91 -10
128 -77 168 -149 90 -157 97 -176 145 -15 41 -16 56 -6 113 6 36 17 72 26 80
30 31 66 -13 66 -81 0 -35 32 -94 55 -104 26 -9 51 23 85 112 37 96 36 115
-12 164 -64 65 -188 105 -260 82z"/>
<path d="M2502 3560 c-131 -59 -212 -287 -212 -596 0 -128 14 -203 52 -282 37
-76 86 -116 163 -132 107 -22 180 25 216 141 30 97 46 356 31 524 -17 197 -59
306 -135 347 -41 22 -63 22 -115 -2z m70 -387 c10 -9 18 -30 18 -50 0 -30 2
-33 32 -33 41 0 68 -25 68 -63 0 -41 -26 -67 -67 -67 -31 0 -33 -2 -33 -33 0
-44 -15 -57 -65 -57 -50 0 -65 13 -65 57 0 31 -2 33 -33 33 -44 0 -57 15 -57
65 0 50 13 65 57 65 30 0 33 3 33 32 0 17 7 40 17 50 20 22 70 23 95 1z"/>
<path d="M2210 2643 c-36 -15 -67 -83 -53 -118 4 -11 16 -15 37 -13 26 3 35
11 55 52 18 36 22 53 14 65 -11 18 -30 23 -53 14z"/>
<path d="M2797 2639 c-23 -13 -47 -62 -47 -94 0 -51 68 -45 94 9 33 71 8 117
-47 85z"/>
<path d="M3297 2639 c-23 -13 -47 -62 -47 -94 0 -51 68 -45 94 9 33 71 8 117
-47 85z"/>
<path fill="#000" d="M1297 2441 c-38 -5 -51 -12 -67 -36 -11 -16 -20 -37 -20 -45 0 -15
-65 -148 -113 -230 -15 -25 -34 -61 -44 -80 -9 -19 -22 -42 -29 -50 -29 -37
-105 -196 -102 -215 5 -32 63 -55 143 -55 39 0 94 -3 123 -6 l52 -7 0 -131 c0
-163 3 -168 85 -164 l60 3 -4 148 -3 147 59 0 59 0 -1 48 0 47 -58 3 -58 3 6
92 c12 189 28 342 36 365 5 13 9 48 9 78 0 41 -5 59 -20 74 -20 20 -29 21
-113 11z m-100 -386 c5 -14 8 -14 25 2 24 22 53 7 53 -27 0 -34 -29 -49 -53
-27 -17 16 -20 16 -25 2 -4 -8 -16 -15 -27 -15 -13 0 -20 -7 -20 -19 0 -22
-21 -33 -39 -21 -21 12 -9 55 15 54 16 0 20 4 16 18 -9 36 42 66 55 33z m121
-68 c5 -23 -16 -47 -34 -40 -14 5 -19 44 -7 57 12 12 38 1 41 -17z m-59 -44
c36 -43 37 -50 14 -75 -17 -19 -96 -25 -122 -9 -23 15 -16 60 15 92 37 38 56
37 93 -8z"/>
</g>
</svg>
