<svg width="24" height="24" viewBox="0 0 24 24" fill="none" xmlns="http://www.w3.org/2000/svg">
<path fill-rule="evenodd" clip-rule="evenodd" d="M6.7426 0C3.0188 0 0 3.01878 0 6.74263V17.2574C0 20.9812 3.0188 24 6.7426 24H17.2574C20.9812 24 24 20.9812 24 17.2574V6.74263C24 3.01878 20.9812 0 17.2574 0H6.7426ZM6.6487 2.21618C4.2009 2.21618 2.2165 4.20056 2.2165 6.64841V17.3517C2.2165 19.7996 4.2009 21.784 6.6487 21.784H17.3049C19.7528 21.784 21.7371 19.7996 21.7371 17.3517V6.6484C21.7371 4.20056 19.7528 2.21618 17.3049 2.21618H6.6487Z" fill="#ffffff"/>
<path fill-rule="evenodd" clip-rule="evenodd" d="M11.9989 18.2004C15.3973 18.2004 18.1522 15.4455 18.1522 12.0472C18.1522 8.64882 15.3973 5.89392 11.9989 5.89392C8.60061 5.89392 5.8457 8.64882 5.8457 12.0472C5.8457 15.4455 8.60061 18.2004 11.9989 18.2004ZM11.9985 16.0315C14.225 16.0315 16.03 14.2266 16.03 12.0001C16.03 9.7736 14.225 7.96863 11.9985 7.96863C9.772 7.96863 7.9671 9.7736 7.9671 12.0001C7.9671 14.2266 9.772 16.0315 11.9985 16.0315Z" fill="#ffffff"/>
<path d="M18.4596 7.02563C19.2538 7.02563 19.8977 6.38177 19.8977 5.58752C19.8977 4.79328 19.2538 4.14941 18.4596 4.14941C17.6653 4.14941 17.0215 4.79328 17.0215 5.58752C17.0215 6.38177 17.6653 7.02563 18.4596 7.02563Z" fill="#ffffff"/>
</svg>
